<?xml version="1.0" encoding="UTF-8" standalone="no"?>
<!-- Created with Inkscape (http://www.inkscape.org/) -->

<svg
   width="512"
   height="512"
   viewBox="0 0 512 512"
   version="1.1"
   id="svg5"
   inkscape:version="1.2.2 (b0a8486541, 2022-12-01)"
   sodipodi:docname="cam-catch-image-model-1-picture-1.svg"
   xmlns:inkscape="http://www.inkscape.org/namespaces/inkscape"
   xmlns:sodipodi="http://sodipodi.sourceforge.net/DTD/sodipodi-0.dtd"
   xmlns:xlink="http://www.w3.org/1999/xlink"
   xmlns="http://www.w3.org/2000/svg"
   xmlns:svg="http://www.w3.org/2000/svg"
   xmlns:rdf="http://www.w3.org/1999/02/22-rdf-syntax-ns#"
   xmlns:cc="http://creativecommons.org/ns#"
   xmlns:dc="http://purl.org/dc/elements/1.1/">
  <title
     id="title477">cam-catch-image-model picture 1</title>
  <sodipodi:namedview
     id="namedview7"
     pagecolor="#ffffff"
     bordercolor="#ffffff"
     borderopacity="1"
     inkscape:showpageshadow="0"
     inkscape:pageopacity="0"
     inkscape:pagecheckerboard="1"
     inkscape:deskcolor="#373737"
     inkscape:document-units="px"
     showgrid="true"
     inkscape:zoom="1.6503906"
     inkscape:cx="189.04616"
     inkscape:cy="287.81066"
     inkscape:window-width="1920"
     inkscape:window-height="1011"
     inkscape:window-x="0"
     inkscape:window-y="32"
     inkscape:window-maximized="1"
     inkscape:current-layer="layer2">
    <inkscape:grid
       type="xygrid"
       id="grid182" />
  </sodipodi:namedview>
  <defs
     id="defs2">
    <marker
       style="overflow:visible"
       id="marker4939"
       refX="0"
       refY="0"
       orient="auto-start-reverse"
       inkscape:stockid="Arrow4"
       markerWidth="5"
       markerHeight="6"
       viewBox="0 0 5 6"
       inkscape:isstock="true"
       inkscape:collect="always"
       preserveAspectRatio="xMidYMid">
      <path
         style="fill:context-stroke;fill-rule:evenodd;stroke:none"
         d="m 1,0 -3,3 h -2 l 3,-3 -3,-3 h 2 z"
         id="path4937" />
    </marker>
    <marker
       style="overflow:visible"
       id="Arrow4"
       refX="0"
       refY="0"
       orient="auto-start-reverse"
       inkscape:stockid="Arrow4"
       markerWidth="5"
       markerHeight="6"
       viewBox="0 0 5 6"
       inkscape:isstock="true"
       inkscape:collect="always"
       preserveAspectRatio="xMidYMid">
      <path
         style="fill:context-stroke;fill-rule:evenodd;stroke:none"
         d="m 1,0 -3,3 h -2 l 3,-3 -3,-3 h 2 z"
         id="path1741" />
    </marker>
    <color-profile
       name="Built-in-display"
       xlink:href="../../../../.local/share/icc/edid-33022d5a42de77a72bede0e0ff1da34c.icc"
       id="color-profile584" />
  </defs>
  <g
     inkscape:groupmode="layer"
     id="layer2"
     inkscape:label="Background"
     style="fill:#ffffff">
    <rect
       style="fill:#ffffff;fill-opacity:0.348344;stroke:#ffffff;stroke-width:2;stroke-linecap:square"
       id="rect469"
       width="511.7117"
       height="509.97565"
       x="-0.022762574"
       y="0.84048635" />
    <text
       xml:space="preserve"
       style="font-style:normal;font-weight:normal;font-size:40px;line-height:1.25;font-family:sans-serif;fill:#000000;fill-opacity:1;stroke:none"
       x="448.32901"
       y="491.95941"
       id="text525"><tspan
         sodipodi:role="line"
         id="tspan523"
         x="448.32901"
         y="491.95941"
         style="font-style:normal;font-variant:normal;font-weight:normal;font-stretch:normal;font-size:10.6667px;font-family:sans-serif;-inkscape-font-specification:'sans-serif, Normal';font-variant-ligatures:normal;font-variant-caps:normal;font-variant-numeric:normal;font-variant-east-asian:normal">picture 1</tspan></text>
  </g>
  <g
     inkscape:label="Layer 1"
     inkscape:groupmode="layer"
     id="layer1">
    <path
       style="fill:none;fill-rule:evenodd;stroke:#000000;stroke-width:1px;stroke-linecap:butt;stroke-linejoin:miter;stroke-opacity:1"
       d="M 52.872448,166.77476 133.57955,83.077515"
       id="path4283"
       inkscape:connector-type="polyline"
       inkscape:connector-curvature="0" />
    <path
       style="fill:none;fill-rule:evenodd;stroke:#000000;stroke-width:0.948007px;stroke-linecap:butt;stroke-linejoin:miter;stroke-opacity:1"
       d="m 133.31266,79.916813 0.17805,240.103327"
       id="path4285"
       inkscape:connector-type="polyline"
       inkscape:connector-curvature="0" />
    <path
       style="fill:none;fill-rule:evenodd;stroke:#000000;stroke-width:1px;stroke-linecap:butt;stroke-linejoin:miter;stroke-opacity:1"
       d="M 50.960355,166.68634 V 415.5895"
       id="path4287"
       inkscape:connector-type="polyline"
       inkscape:connector-curvature="0" />
    <path
       style="fill:none;fill-rule:evenodd;stroke:#000000;stroke-width:1px;stroke-linecap:butt;stroke-linejoin:miter;stroke-opacity:1"
       d="M 51.293861,412.25133 133.82411,320.88295"
       id="path4291"
       inkscape:connector-type="polyline"
       inkscape:connector-curvature="0" />
    <ellipse
       style="fill:#000000;fill-opacity:0.348344;stroke:#ffffff;stroke-width:2;stroke-linecap:square"
       id="path4432"
       cx="398.0899"
       cy="64.817101"
       rx="9.4491491"
       ry="9.5060282" />
    <path
       style="fill:none;stroke:#000000;stroke-width:1px;stroke-linecap:butt;stroke-linejoin:miter;stroke-opacity:1"
       d="m 458.0088,143.54027 c 0.0963,0.91376 0.1927,1.82752 0.28906,2.74128 0.0261,0.03 0.16509,0.15737 0.22233,0.0663 0.10468,-0.16653 0.18017,-0.38373 0.13343,-0.57478 -0.18408,-0.7525 -0.89177,-1.49854 -0.64482,-2.23281 0.57767,-1.71759 1.99767,-3.02518 2.93484,-4.57616 0.4117,-0.68135 0.22593,-0.82798 0.64475,-1.34852 0.48485,-0.60261 0.011,0.11069 0.2446,-0.15475 0.56821,-0.64579 1.62929,-0.48881 2.40118,-0.66323 0.58283,-0.13169 1.06845,-0.35609 1.66753,-0.0663 0.51984,0.25146 2.15313,1.77625 2.4679,2.27701 0.12172,0.19364 0.18876,0.41929 0.24453,0.64111 0.32576,1.29561 0.18933,2.66049 0.48912,3.95715 0.14174,0.61306 0.44137,1.36973 0.756,1.92332 0.0155,0.0272 0.26544,0.34689 0.28897,0.42003 0.0536,0.16636 0.40253,2.93279 0.48913,2.98446 0.48286,0.28809 1.15579,-0.3301 1.55636,-0.42004 0.0703,-0.0158 0.36167,0.0395 0.46694,-0.0442 0.0814,-0.0648 0.0225,-0.22112 0.13336,-0.24318 0.0847,-0.0169 0.1595,0.0475 0.2446,0.0221 0.6781,-0.2023 1.3021,-0.67501 2.00096,-0.79586 0.51524,-0.0891 1.02043,-0.032 1.5341,-0.11054 0.79152,-0.12108 1.54618,-0.19711 2.35673,-0.13264 0.60765,0.0483 1.69716,0.0344 2.00103,0.68532 0.30253,0.64801 0.40636,1.73323 0.6003,2.45388 0.39919,1.48332 1.15192,4.39459 0.62256,5.83626 -0.34339,0.93519 -1.04411,1.7999 -1.75643,2.47598 -0.98799,0.93772 -1.96147,1.0952 -3.2239,1.32643 -0.49026,0.0898 -0.97317,0.22272 -1.46738,0.28739 -0.51771,0.0677 -1.03482,0.15216 -1.55636,0.17684 -0.16307,0.008 -0.62298,0.0649 -0.46686,0.11054 0.47769,0.13971 0.99899,0.0663 1.48964,0.0663 1.50576,0 3.129,-0.15872 4.6023,0.22106 0.65504,0.16886 1.11175,0.56379 1.68971,0.88429 0.74165,0.41126 1.54748,0.57672 2.24557,1.08324 1.25591,0.91128 2.305,2.66835 3.11272,3.95716 0.36042,0.57509 0.67618,1.15262 1.00044,1.74647 0.52288,0.95761 0.63556,1.35 0.40022,2.52019 -0.24853,1.23582 -1.88046,1.79514 -2.82366,2.32125 -0.74732,0.41683 -1.42608,0.91891 -2.24557,1.19378 -1.091,0.36595 -0.71368,0.10828 -1.75643,0.3316 -0.37208,-0.14542 -0.55251,0.24242 -0.84482,0.30949 -0.82293,0.18881 -1.75571,-0.0199 -2.60134,0.0221 -1.50813,0.075 -1.93895,0.79003 -3.17936,1.59169 -0.10022,0.0648 -0.39585,0.0927 -0.31124,0.17687 0.22657,0.22535 2.21129,0.0424 2.66797,0.11054 0.6245,0.0931 1.06713,0.38318 1.64527,0.57478 0.55002,0.18229 0.3809,0.002 0.9338,0.15475 0.25997,0.0718 0.5028,0.28045 0.73373,0.39793 0.74205,0.37748 1.59602,0.68792 2.37892,0.97271 0.41389,0.15055 0.88734,0.12755 1.26731,0.37581 0.47648,0.31133 0.82867,0.7646 1.33402,1.06113 0.43555,0.25558 0.8526,0.40081 1.24504,0.70744 0.73717,0.57595 -0.75491,-0.34044 0.57811,0.53056 0.35415,0.23141 0.75488,0.27368 1.08942,0.55268 0.64255,0.53587 1.23184,1.36161 1.64527,2.07805 0.72042,1.24843 0.81395,2.62394 1.00052,4.02349 0.0583,0.43757 0.24674,1.29299 0.3335,1.72435 0.33162,1.6487 0.72853,5.89009 0.26679,7.5385 -0.42155,1.50495 -1.94169,3.49825 -3.17936,4.44353 -0.80261,0.61299 -1.80707,0.81575 -2.7125,1.21586 -0.95219,0.42078 -1.86177,0.95567 -2.84586,1.30433 -2.15806,0.76459 -4.55013,1.41976 -6.84785,1.63591 -1.01598,0.0956 -2.04745,0.17689 -3.0682,0.17689 -0.52828,0 -1.31365,-0.1406 -1.84541,0.0221 -0.79833,0.24422 -1.53653,0.73315 -2.26775,1.12748 -0.62231,0.3356 -1.49061,0.61758 -1.91214,1.19379 -0.14795,0.20224 -0.0418,0.57735 0.0667,0.75163 0.85041,1.36604 2.70064,1.77742 4.13543,2.16649 1.01751,0.27592 2.05756,0.49761 3.09046,0.70743 0.41553,0.0844 1.34036,0.22165 1.77862,0.3537 0.59144,0.1782 1.16148,0.47744 1.73425,0.70744 0.34955,0.14035 1.03897,0.37003 1.35621,0.55266 1.33808,0.77029 1.70403,2.18372 2.17885,3.53713 0.34623,0.98689 0.58373,1.98044 0.77818,3.00654 0.41815,2.20662 0.32901,3.25102 -1.40067,5.04043 -0.84155,0.87061 -2.01733,1.40922 -3.046,2.01172 -2.01171,1.17825 -3.91492,2.31336 -6.24756,2.76339 -1.7176,0.33136 -3.48529,0.17554 -5.1804,0.59689 -0.2015,0.0501 -0.80535,0.0558 -0.73373,0.37581 0.11457,0.51194 2.9711,0.14956 3.17944,0.72955 0.15473,0.43077 0.14429,0.78664 0.15562,1.2601 0.0464,1.93726 -0.31933,4.03008 0.97825,5.68151 0.18404,0.23422 0.42404,0.41901 0.62256,0.64108 0.92887,1.03907 1.74519,2.18611 2.66798,3.22763 0.58458,0.6598 1.34336,1.14149 1.95651,1.76857 0.48597,0.49701 0.83737,1.09788 1.33402,1.59171 0.58252,0.57922 1.24607,1.07143 1.82315,1.65803 1.4985,1.52321 3.15657,3.6717 3.73521,5.74785 0.76919,2.75986 -0.51373,4.96567 -2.26783,7.09634 -0.75092,0.91214 -2.59029,2.24028 -3.64623,2.94024 -0.55256,0.36628 -1.22519,0.5075 -1.77869,0.86216 -0.17698,0.1134 -0.32609,0.26529 -0.48913,0.39793 -0.26682,0.1916 -0.52244,0.39983 -0.80045,0.57478 -0.77356,0.48683 -1.7355,1.05031 -2.62352,1.30433 -0.56391,0.1613 -1.38318,0.15149 -1.93432,0.22108 -0.55768,0.0704 -1.03312,0.43102 -1.60074,0.48635 -2.34417,0.22853 -4.94597,-0.0772 -7.27034,-0.3095 -1.12519,-0.11248 -2.25123,-0.21856 -3.35724,-0.46424 -0.37084,-0.0824 -0.956,-0.29618 -0.956,-0.33162 0,-0.16098 0.86734,-0.22108 0.97826,-0.22108 0.63735,0 1.2747,0 1.91206,0 2.09733,0 4.19467,0 6.29201,0"
       id="path4434" />
    <path
       style="fill:none;stroke:#000000;stroke-width:1px;stroke-linecap:butt;stroke-linejoin:miter;stroke-opacity:1"
       d="m 456.16346,146.10468 c -0.91756,-2.07915 -2.0996,-4.08125 -2.91257,-6.21208 -0.24132,-0.6325 0.0175,-0.12284 -0.20008,-0.86216 -0.17208,-0.58464 -0.71794,-1.072 -1.20066,-1.41485 -2.23579,-1.58794 -6.30599,-1.96515 -8.58203,-0.24318 -0.60312,0.4563 -0.91175,0.99236 -1.35629,1.5917 -0.33063,0.44578 -1.15018,1.39798 -1.48957,1.94541 -0.43294,0.69834 -0.80611,1.52322 -1.13395,2.27704 -0.95459,2.19497 -1.74398,7.03887 -0.82263,9.32916 0.4705,1.16958 1.34152,2.36369 2.22337,3.24974 1.00013,1.00489 2.2267,1.64272 3.42389,2.36546 0.27061,0.16336 0.52899,0.3465 0.80045,0.50845 0.39439,0.23528 0.94362,0.39482 1.28949,0.70743 0.0561,0.0507 0.2646,0.24056 0.15563,0.30951 -0.42377,0.2681 -0.97418,0.24098 -1.46739,0.3316 -1.54811,0.28444 -3.09842,0.5568 -4.64674,0.84007 -3.38157,0.61867 -4.29824,0.82072 -7.75947,1.32642 -0.56716,0.0829 -1.70959,0.0429 -2.33447,0.3537 -0.90022,0.44774 -2.71216,1.96699 -3.20162,2.76339 -0.25686,0.41791 -0.24814,0.83747 -0.33351,1.30431 -0.091,0.49783 -0.23928,0.98393 -0.33351,1.48117 -0.21011,1.10882 -0.24452,2.18958 -0.24452,3.31607 0,0.49696 -0.20583,1.80464 0.20007,2.21069 1.21413,1.21455 2.44196,2.50733 3.97974,3.27185 1.4079,0.69996 2.96713,0.98261 4.46893,1.41485 0.38936,0.11207 0.73618,0.26614 1.11169,0.39793 0.34969,0.12274 0.68532,0.0457 1.04497,0.19897 0.0414,0.0176 0.63284,0.36595 0.51131,0.55266 -0.6594,1.01314 -5.33077,2.5087 -6.40318,2.96235 -2.13728,0.90412 -2.06786,0.95883 -3.91309,1.83488 -0.11283,0.0536 -1.45754,0.53478 -1.64526,0.68531 -0.22545,0.18079 -1.08699,1.23067 -1.11162,1.26012 -0.45569,0.54487 -1.98465,2.4094 -2.37899,2.82969 -0.40476,0.4314 -3.75283,3.35609 -4.002,4.42142 -0.15113,0.64613 -0.0443,1.32641 -0.0667,1.98961 -0.0177,0.52459 -0.0971,1.97257 -0.0223,2.47599 0.3597,2.41948 2.46938,3.44561 4.51339,4.31088 3.1397,1.32909 6.71896,1.16706 10.04948,1.23801 0.004,1e-4 2.46527,-0.0268 2.57907,0.17685 0.17447,0.31227 -0.037,0.62433 -0.22234,0.88429 -0.65607,0.92029 -1.59628,1.87524 -2.40118,2.63073 -0.2892,0.27145 -2.0095,1.51202 -2.31228,2.03384 -0.35795,0.6169 0.1569,2.76033 0.20008,3.05077 0.20398,1.37206 0.50709,2.73077 0.77818,4.0898 0.13407,0.67216 0.15976,0.83116 0.20014,1.61383 0.031,0.60165 -0.0627,1.28701 0.0889,1.8791 0.49997,1.95314 2.7953,2.15002 4.42441,2.56439 0.35789,0.091 1.26526,0.28077 1.73424,0.53058 0.0646,0.0344 0.60681,0.32651 0.55585,0.42005 -0.82049,1.50596 -2.47067,2.56835 -3.89083,3.40447 -0.61307,0.36095 -2.16704,0.8942 -2.75695,1.39275 -0.63801,0.53921 0.52599,0.45931 0.82263,0.50847 2.89578,0.47988 0.8408,0.14502 2.2233,0.42001 0.13949,0.0277 0.92708,0.0653 0.84489,0.37581 -0.0812,0.30685 -4.35384,3.21316 -5.00251,3.64767 -3.04311,2.03847 -3.73799,2.46234 -6.78114,4.37722 -1.69271,1.06513 -1.5099,0.97171 -3.69075,2.05596 -0.005,0.002 -0.63722,0.19833 -0.64483,0.22104 -0.45165,1.34783 -0.39713,2.80883 -0.33343,4.20033 0.0119,0.26023 -0.021,1.04523 0.0222,1.26014 0.30004,1.49193 1.91484,2.07003 3.17936,2.52019 2.33856,0.83251 4.78632,1.17442 7.24808,1.39275 0.72481,0.0643 1.4521,0.0978 2.17892,0.13262 0.89052,0.0427 1.99359,-0.0681 2.89031,0.15477 0.40032,0.0995 -0.0945,1.08509 -0.60029,1.9233 -0.92325,1.53002 -2.24127,2.77053 -3.64631,3.84663 -0.25575,0.19588 -1.21389,0.53934 -1.31176,0.68532 -0.0251,0.0374 0.27155,0.33268 0.77818,0.68532 1.50145,1.04507 3.2595,1.44472 4.95807,2.05595 0.0971,0.0349 1.84896,0.70973 2.00096,0.75163 0.87873,0.24222 1.80212,0.34244 2.69023,0.5527 0.39113,0.0926 0.74998,0.26406 1.13395,0.37581 0.8117,0.23623 1.69864,0.33233 2.53455,0.44213 0.34163,0.0449 0.77441,0.0379 0.97832,0.37581 0.22063,0.36554 0.73924,0.59868 1.13388,0.72955 0.0507,0.0168 0.31636,0.0245 0.33351,0.0884 0.0249,0.0928 0.0412,0.1932 0.0223,0.28739 -0.10564,0.52519 -0.67905,0.97419 -1.0895,1.28221 -0.53543,0.40182 -1.18283,0.96459 -1.82307,1.21591 -0.35315,0.13862 -0.72787,0.0777 -1.0895,0.15473 -1.11685,0.23798 -2.16056,0.58848 -3.31272,0.6632 -0.92833,0.0602 -1.85716,-0.0201 -2.77922,0.13266 -1.69653,0.28113 -3.26617,1.25904 -4.78018,2.01172 -0.51284,0.25496 -1.02456,0.51224 -1.53409,0.77374 -0.20837,0.10694 -0.80037,0.38534 -0.80037,0.48636 0,0.12684 0.25112,0.0427 0.37795,0.0442 1.94103,0.0235 3.88395,0 5.82515,0 2.31006,0 4.6172,-0.0587 6.87012,-0.64109 0.48802,-0.12616 0.96346,-0.3053 1.44519,-0.44216 0.35793,-0.10169 0.73411,-0.0885 1.08943,-0.17685 0.29397,-0.0731 0.71502,-0.48695 0.97825,-0.53058 0.54137,-0.0897 0.61957,0.0314 1.24504,-0.19897 0.95161,-0.35046 0.42392,-0.38679 0.86709,-0.72951 0.26719,-0.20662 0.61632,-0.169 0.88935,-0.37581 0.66896,-0.50673 -0.36329,0.12153 0.40022,-0.39793 0.004,-0.003 0.27697,-0.11217 0.31124,-0.15477 0.0652,-0.081 0.0814,-0.26227 0.20015,-0.30951 1.17811,-0.46873 2.17002,-0.37581 3.4017,-0.37581"
       id="path4436" />
    <path
       style="fill:none;stroke:#000000;stroke-width:1px;stroke-linecap:butt;stroke-linejoin:miter;stroke-opacity:1"
       d="m 446.93661,264.86372 c 0.47675,1.25633 -0.0592,2.53632 0,3.8024 0.0764,1.63328 0.35441,3.245 0.40022,4.88566 0.11295,4.04425 0.0889,8.09127 0.0889,12.13676 0,2.45876 0.0673,4.92643 -0.0223,7.38376 -0.0556,1.52617 -0.13453,3.09999 -0.28898,4.62034 -0.17932,1.76512 -0.15558,0.48896 -0.2446,2.27703 -0.062,1.24602 0.0327,0.95756 -0.0889,2.23281 -0.3849,4.03539 -1.24658,8.01131 -1.7787,12.02626 -0.18867,1.42361 -0.14105,2.77197 -0.17788,4.20033 -0.0536,2.07723 -0.2265,3.73632 -0.6003,5.74782 -0.48016,2.58381 -0.91296,5.16292 -1.15614,7.78169 -0.10931,1.17725 -0.0444,2.37761 -0.0444,3.55921 0,0.3832 0,0.76639 0,1.14959 0,0.0676 -0.0452,0.41931 0,0.46424 0.11561,0.11503 0.20855,-0.33737 0.33351,-0.75163"
       id="path4438" />
    <path
       style="fill:none;stroke:#000000;stroke-width:1px;stroke-linecap:butt;stroke-linejoin:miter;stroke-opacity:1"
       d="m 458.67581,274.43606 c 0.22234,1.09798 0.42568,2.19997 0.66702,3.29393 0.0115,0.052 0.0593,0.0884 0.0889,0.13266 0.0445,0.14001 0.10419,0.27607 0.13343,0.42004 0.51794,2.55023 0.88213,5.07502 1.02271,7.67112 0.19379,3.57888 -0.0493,7.16785 0.17788,10.74405 0.0714,1.12407 0.29566,2.19964 0.42242,3.31605 0.0543,0.47831 0.18301,2.66498 0.22233,3.09497 0.21936,2.39886 0.15273,1.19038 0.48913,3.58136 0.25935,1.84332 0.34758,3.72136 0.71154,5.54885 0.26004,1.3057 0.79133,2.56173 1.13387,3.84663 0.50503,1.89438 1.0046,3.83405 1.17833,5.79205 0.0835,0.94143 0.0188,1.86765 0.0667,2.80759 0.0472,0.92715 0.51139,1.74254 0.51139,2.65284 0,1.22325 0,2.4465 0,3.66975 0,0.30949 -0.0419,0.67256 0.0444,0.97275 0.0456,0.15848 0.0849,0.28569 0.11117,0.44212 0.003,0.0163 0.0213,0.0607 0.0223,0.0442 0.0778,-1.2769 0.10479,-2.57109 0.15563,-3.84664"
       id="path4440" />
    <path
       style="fill:none;stroke:#000000;stroke-width:1px;stroke-linecap:butt;stroke-linejoin:miter;stroke-opacity:1"
       d="m 421.12367,340.64663 c 0.88193,0.0811 1.76069,0.21187 2.64578,0.2432 1.40723,0.0498 2.81623,0 4.22434,0 1.21984,0 2.50411,0.0544 3.7352,-0.0221 0.71381,-0.0444 1.41899,-0.0663 2.1344,-0.0663 0.27421,0 0.54842,0 0.82263,0 0.0519,0 0.2075,0 0.15562,0 -0.10375,0 -0.20749,0 -0.31124,0"
       id="path4442" />
    <path
       style="fill:none;stroke:#000000;stroke-width:1px;stroke-linecap:butt;stroke-linejoin:miter;stroke-opacity:1"
       d="m 477.48528,338.03802 c 1.04497,0.4495 2.11163,0.85161 3.13491,1.34852 0.25681,0.12471 0.44744,0.35663 0.6892,0.50847 0.53289,0.33466 1.16598,0.52337 1.71199,0.84005 0.19386,0.11244 0.34565,0.26665 0.55584,0.35373 0.68061,0.28201 3.44332,0.31716 4.04645,0.13262 0.28207,-0.0863 0.87821,-0.88206 1.11169,-1.08324 0.34172,-0.29447 0.71279,-0.56112 1.06715,-0.84006 0.25893,-0.20381 0.51655,-0.22636 0.80045,-0.37581 0.3947,-0.20778 0.54894,-0.70238 0.9338,-0.92851 0.19547,-0.11485 0.43071,-0.10154 0.64475,-0.15474 0.31923,-0.0793 0.6966,-0.0221 1.02271,-0.0221 0.11116,0 0.44467,0 0.3335,0 -0.62017,0 -1.46718,0.21107 -2.00096,0.28739 -0.68159,0.0974 -1.36366,0.19159 -2.04549,0.28739"
       id="path4452" />
    <path
       style="fill:none;stroke:#000000;stroke-width:1px;stroke-linecap:butt;stroke-linejoin:miter;stroke-opacity:1"
       d="m 451.51672,308.4588 c -0.70886,2.70503 -0.87137,2.64682 -1.00052,4.97408 -0.086,1.54981 0,3.13472 0,4.68668 0,2.75602 0,5.51204 0,8.26805 0,2.56589 0.10532,5.09147 0.28905,7.64904 0.005,0.0628 0.0587,0.97272 0.0889,1.12744 0.0635,0.32493 0.22622,0.64291 0.3335,0.55266 0.55078,-0.46333 0.68702,-1.95498 0.77818,-2.29911 0.9182,-3.46624 0.53865,-2.34361 1.51184,-4.79723"
       id="path4454" />
    <path
       style="fill:none;stroke:#000000;stroke-width:1px;stroke-linecap:butt;stroke-linejoin:miter;stroke-opacity:1"
       d="m 459.58743,317.10263 c 0.30384,1.10536 0.64384,2.20141 0.91153,3.31608 0.33927,1.41268 0.23805,2.96151 0.31125,4.3993 0.20833,4.0925 0.11117,8.21465 0.11117,12.31361"
       id="path4456" />
    <path
       style="display:inline;fill:none;fill-rule:evenodd;stroke:#000000;stroke-width:1px;stroke-linecap:butt;stroke-linejoin:miter;stroke-opacity:1;marker-end:url(#Arrow4)"
       d="m 404.62648,81.331065 25.72404,56.792975"
       id="path4458"
       inkscape:connector-type="polyline"
       inkscape:connector-curvature="0" />
    <text
       xml:space="preserve"
       style="font-style:normal;font-weight:normal;font-size:18.6667px;line-height:1.25;font-family:sans-serif;fill:#000000;fill-opacity:1;stroke:none;-inkscape-font-specification:'sans-serif, Normal';font-stretch:normal;font-variant:normal;font-variant-ligatures:normal;font-variant-caps:normal;font-variant-numeric:normal;font-variant-east-asian:normal"
       x="367.6716"
       y="56.279976"
       id="text4849"><tspan
         sodipodi:role="line"
         id="tspan4851" /></text>
    <text
       xml:space="preserve"
       style="font-style:normal;font-weight:normal;font-size:40px;line-height:1.25;font-family:sans-serif;fill:#000000;fill-opacity:1;stroke:none"
       x="371.89444"
       y="31.37538"
       id="text4855"><tspan
         sodipodi:role="line"
         id="tspan4853"
         x="371.89444"
         y="31.37538" /></text>
    <text
       xml:space="preserve"
       style="font-style:normal;font-weight:normal;font-size:40px;line-height:1.25;font-family:sans-serif;fill:#000000;fill-opacity:1;stroke:none"
       x="348.40607"
       y="51.579346"
       id="text4859"><tspan
         sodipodi:role="line"
         id="tspan4857"
         x="348.40607"
         y="51.579346"
         style="font-style:normal;font-variant:normal;font-weight:normal;font-stretch:normal;font-size:16px;font-family:sans-serif;-inkscape-font-specification:'sans-serif, Normal';font-variant-ligatures:normal;font-variant-caps:normal;font-variant-numeric:normal;font-variant-east-asian:normal">Light source</tspan></text>
    <path
       style="fill:none;stroke:#000000;stroke-width:1px;stroke-linecap:butt;stroke-linejoin:miter;stroke-opacity:1"
       d="m 101.09397,279.52064 c -0.1409,1.20066 -0.008,3.19024 -1.623041,3.24974 -0.06536,0.002 -0.309689,0.034 -0.377959,0 -0.172381,-0.0858 0.452728,-0.29621 0.489128,-0.37581 0.03791,-0.0829 0.01869,-0.18781 0.06668,-0.26531 0.270076,-0.43633 0.824062,-0.69625 1.178362,-1.06113 0.27492,-0.28313 0.58633,-0.46066 0.86712,-0.72951 0.33799,-0.32362 0.41099,-0.53016 0.71147,-0.92852 0.33829,-0.44848 0.76438,-0.83117 1.0672,-1.30432 0.35991,-0.56237 0.65623,-1.52799 0.86708,-2.10015 0.54834,-1.48798 0.62367,-1.73796 1.26731,-3.18343 0.63311,-1.42183 0.59988,-1.15725 1.13391,-2.56443 0.13816,-0.36405 0.22835,-0.74582 0.37796,-1.10532 0.47519,-1.14184 0.31333,-0.46473 0.77818,-1.43698 0.32048,-0.6703 0.57041,-1.45426 0.68924,-2.18858 0.29497,-1.82274 0.17785,-3.68539 0.17785,-5.52677 0,-0.51276 0.079,-1.08857 -0.0222,-1.59172 -0.021,-0.1047 -1.12591,-0.0442 -1.13391,-0.0442 -1.81751,0 -3.64858,0.13755 -5.38048,0.72951 -0.34426,0.11767 -1.07163,0.38568 -1.4896,0.46428 -0.10223,0.0193 -0.31128,0.0819 -0.31128,-0.0221 0,-0.2247 0.37757,-0.71118 0.44467,-0.81797 0.19426,-0.30905 0.40358,-0.68724 0.64475,-0.97271 0.34155,-0.40429 0.87678,-0.66967 1.24508,-1.06113 0.98776,-1.04988 0.5627,-0.68763 1.51187,-1.9233 1.43752,-1.87142 1.07149,-1.26593 2.20111,-2.80762 0.45151,-0.61621 0.82813,-1.28467 1.24505,-1.9233 0.67213,-1.02956 0.11572,-0.13955 1.04497,-1.26009 0.69383,-0.83668 0.86477,-1.88456 0.91157,-2.94024 0.0796,-1.79474 0.10811,-4.26165 -0.57807,-5.92471 -0.11325,-0.27448 -0.2859,-0.52179 -0.40018,-0.79585 -0.20138,-0.48294 -0.36032,-1.31664 -0.91158,-1.5696 -0.90401,-0.41485 -3.70252,-0.19897 -4.71346,-0.19897 -0.2096,0 -0.62256,0.1212 -0.62256,-0.0884 0,-0.16095 0.42588,-0.37963 0.44468,-0.39793 1.71214,-1.66621 2.95872,-3.89584 4.06871,-5.99098 0.26566,-0.50145 0.45328,-1.04536 0.75592,-1.52541 1.07519,-1.70545 1.83781,-2.44073 2.2456,-4.57614 0.0528,-0.27625 0.14123,-1.37147 -0.17789,-1.63591 -0.25585,-0.21201 -1.24088,-0.21621 -1.57855,-0.30951 -0.32977,-0.0911 -0.5897,-0.31896 -0.91157,-0.42004 -1.00507,-0.31561 -2.21592,-0.12435 -3.24608,-0.17685 -0.20794,-0.0106 -2.22249,-0.15236 -2.26779,-0.28739 -0.12971,-0.38695 0.49717,-2.07719 0.57807,-2.34334 0.18213,-0.59901 0.40396,-1.50263 0.53358,-2.10019 0.58101,-2.67862 0.53361,-5.36828 0.53361,-8.09116 0,-0.24552 0.0407,-3.70049 -0.0667,-3.73609 -0.41452,-0.13733 -1.71291,0 -2.22334,0 -1.1722,0 -3.294637,0.0195 -4.313274,0.55266 -0.18633,0.0975 -0.352131,0.32876 -0.53358,0.44216 -0.885642,0.55352 -1.797969,1.09104 -2.645784,1.70222 -0.986454,0.71112 -1.830232,1.55777 -2.712463,2.38757 -0.262954,0.24733 -0.533605,0.48634 -0.800407,0.72951 -0.266802,0.22844 -0.544169,0.44509 -0.800407,0.68532 -0.429792,0.40295 -1.099927,1.36284 -1.489645,1.65807 -0.282566,0.21405 -0.822633,0.24539 -0.822633,-0.22108 0,-0.81797 0,-1.63593 0,-2.45389 0,-0.11557 0.04877,-0.41745 -0.06668,-0.48635 -0.226291,-0.13498 -0.743433,0.16746 -0.889349,0.24316 -1.18971,0.6172 -2.32066,1.30489 -3.468417,1.98964 -0.312113,0.18621 -0.65616,0.23779 -0.978254,0.39793 -1.448066,0.71994 -2.991327,1.5954 -4.09094,2.80758 -0.313229,0.3453 -0.342922,0.72889 -0.600296,1.08325 -0.541898,0.74611 -1.217728,0.7486 -1.511871,1.83491 -0.336821,1.24393 -0.387432,4.26188 -0.155621,5.54885 0.103122,0.57252 0.440098,0.93001 0.644748,1.45906 0.266388,0.68866 0.489881,1.45028 0.667012,2.1665 0.07755,0.31358 0.05637,2.00565 0.511354,2.05595 0.500293,0.0553 1.056268,0 1.556361,0 1.823126,0 3.646252,0 5.469378,0 -1.104253,1.43696 -2.129131,2.93856 -3.312759,4.31088 -1.501959,1.74139 -3.4043,3.32255 -5.180362,4.79722 -0.735688,0.61085 -1.414026,1.30346 -2.223336,1.81276 -0.322227,0.20278 -0.78728,0.20929 -1.022744,0.50847 -0.587998,0.7471 -1.007818,1.71838 -1.378476,2.58654 -0.503418,1.17911 -0.862697,2.41347 -1.534098,3.51501 -0.29506,0.4841 -0.590172,0.68696 -0.444674,0.77375 0.168508,0.10051 1.429103,0.0217 1.445192,0.0221 1.097684,0.0263 2.155344,0.26162 3.246043,0.33158 2.429019,0.15582 3.718716,-0.0501 5.980806,-1.03901 1.074087,-0.46954 2.103272,-1.01807 3.179364,-1.48118 0.09219,-0.0397 0.786303,-0.40986 1.022707,-0.33158 0.04125,0.0137 -0.533401,0.30427 -0.578033,0.33158 -0.752391,0.46035 -1.397885,1.09479 -2.112204,1.61383 -0.539791,0.39223 -1.082687,0.78017 -1.623003,1.17167 -1.886145,1.36668 -3.695579,2.80696 -5.558358,4.20034 -0.775036,0.57973 -1.056155,0.61383 -1.600813,1.30432 -0.45463,0.57636 -0.755841,1.34463 -1.089423,1.98961 -0.409683,0.79213 -1.372402,1.82928 -0.755917,2.78551 0.849748,1.31804 3.266693,1.55681 4.646745,1.59171 0.429707,0.0109 0.859745,-0.007 1.289534,0 0.717785,0.0115 1.707228,0.16653 2.445673,-0.11054 0.632802,-0.23743 0.652083,-0.42972 1.222855,-0.84009 0.786861,-0.56573 1.64401,-1.02216 2.623521,-1.06113 0.03703,-0.001 0.08955,-0.0301 0.111169,0 0.115041,0.16016 -0.549567,1.03682 -0.711465,1.30433 -1.04684,1.72973 -1.247229,2.16448 -2.66801,3.97925 -0.913016,1.1662 -2.070195,1.86881 -3.112648,2.87393 -0.596897,0.57552 -0.633195,0.81689 -1.111687,1.48117 -1.685166,2.3395 0.553977,-0.9604 -1.600813,2.12227 -1.362881,1.94975 -1.297324,2.00672 -2.690237,4.11191 -0.433874,0.65573 -0.874807,1.30714 -1.333987,1.94541 -0.193678,0.26922 -1.243801,1.31546 -1.200591,1.70226 0.0711,0.63643 0.742939,1.12828 1.200591,1.48117 0.591664,0.45623 1.611454,0.54858 2.312279,0.61897 3.244263,0.32586 5.495653,-1.19568 8.270784,-2.52019 0.290921,-0.13885 0.423474,-0.10656 0.711501,-0.33158 0.09109,-0.0712 0.172162,-0.29551 0.311243,-0.35374 0.105194,-0.044 0.785198,-0.28042 0.889349,-0.17685 0.186603,0.18557 -0.238527,1.523 -0.355732,1.9233 -0.444708,1.51883 -1.378826,2.95017 -2.267826,4.24457 -0.703022,1.0236 -0.313467,0.39868 -0.933802,1.06113 -0.405616,0.43315 -0.703029,1.03525 -0.978254,1.54748 -0.7242,1.34784 -0.14802,0.39407 -0.978255,1.74649 -0.370099,0.60288 -0.833718,1.20055 -1.111686,1.85699 -0.284484,0.67183 -0.221166,1.49706 -0.355732,2.21069 -0.121049,0.64194 -0.252914,1.12202 -0.377959,1.76856 -0.106028,0.54821 -0.06548,0.84518 -0.355732,1.30433 -0.0726,0.11485 -0.385394,0.19158 -0.289053,0.28739 0.147607,0.14679 1.154348,0.0663 1.267307,0.0663 0.325914,0 0.742336,0.068 1.067197,0 1.194629,-0.25006 2.600027,-2.11544 3.468417,-2.94024 0.582567,-0.55332 1.091374,-0.92176 1.845378,-1.17167 0.04657,-0.0154 0.632637,-0.16282 0.622522,-0.13266 -0.139484,0.4159 -1.141263,1.7574 -1.245082,1.90122 -0.382116,0.52937 -0.783387,1.04532 -1.200591,1.54749 -0.738127,0.88846 -1.638879,1.835 -2.445673,2.67496 -0.509849,0.53081 -1.085535,1.04909 -1.534098,1.63591 -0.272561,0.35658 -0.398246,0.69901 -0.622522,1.10537 -0.675481,1.22387 -1.352632,2.45642 -2.045488,3.66974 -0.981813,1.60951 -0.541072,0.8558 -1.11165,1.85699 -0.05077,0.0891 -0.07671,0.19989 -0.155658,0.26531 -0.05706,0.0473 -0.29047,-0.029 -0.2223,0 0.816972,0.34811 3.709838,0.58717 4.580066,0.42001 0.439689,-0.0844 0.870439,-0.21827 1.289534,-0.37581 1.679732,-0.63142 3.15497,-2.65949 4.735688,-3.1834 0.305214,-0.10116 0.58792,-0.40001 0.867123,-0.5527 0.820171,-0.44852 1.631389,-0.96452 2.42341,-1.43694 0.09231,-0.0551 0.137355,-0.18683 0.222337,-0.24316 0.193252,-0.1281 0.760431,-0.0471 0.889349,-0.13266 0.209771,-0.13915 -0.434829,-0.94263 -0.511354,-1.03901 -0.052,-0.0655 -0.158626,-0.25826 -0.177884,-0.17689 -0.190031,0.80295 -0.277232,7.54246 -0.06672,5.23939"
       id="path4911" />
    <path
       style="fill:none;stroke:#000000;stroke-width:1px;stroke-linecap:butt;stroke-linejoin:miter;stroke-opacity:1"
       d="m 97.692308,278.0395 c 0.738672,0.28376 2.969322,-0.8975 4.113162,-0.46424 0.15178,0.045 0.25461,0.18685 0.40019,0.24316 0.0784,0.0303 0.45659,0.0753 0.51139,0.0884 0.48308,0.11593 1.03266,0.317 1.46738,0.5527 0.13289,0.072 0.0869,0.48917 0.17789,0.61897 0.11699,0.16692 0.2712,0.30547 0.42241,0.44216 0.41623,0.37627 0.19664,0.0629 0.55584,0.42005 0.19201,0.19093 0.27903,0.44139 0.48913,0.61897 0.30888,0.26107 0.78886,0.52114 1.02274,0.8622 0.72691,1.06006 0.48913,2.6523 0.48913,3.89083 0,0.94775 0.15641,2.09173 -0.0889,3.00655 -0.22405,0.83536 -0.51217,1.78508 -0.97826,2.52019 -0.21678,0.34191 -0.54765,0.60346 -0.75592,0.95063 -0.39441,0.65747 -0.28609,0.685 -0.57807,1.23798 -0.3043,0.57633 -0.74493,1.06895 -1.06723,1.63591 -0.43954,0.7732 -0.83326,1.57441 -1.33399,2.32126 -0.1201,0.17915 -0.23513,0.3696 -0.40018,0.50844 -0.0604,0.0508 -0.27967,0.12757 -0.33351,0.19896 -0.0317,0.042 -0.003,0.0895 -0.0667,0.11054 -0.0609,0.0202 -0.0749,-1.05682 -0.0667,-1.08325 0.0157,-0.0508 0.0802,0.0801 0.0889,0.13266 0.0663,0.4023 0.0751,0.81236 0.13344,1.2159 0.11959,0.82743 0.009,1.73728 0.40018,2.47596 0.15003,0.28306 0.31127,-0.56003 0.4669,-0.84005"
       id="path4913" />
    <path
       style="fill:none;stroke:#000000;stroke-width:1px;stroke-linecap:butt;stroke-linejoin:miter;stroke-opacity:1"
       d="m 87.77622,308.37034 c 0.0095,1.24056 1.508494,2.49083 2.067678,3.71402 0.223696,0.48932 0.27238,1.07464 0.377995,1.59168 0.216433,1.05953 0.341447,2.10471 0.422412,3.18343 0.199308,2.65546 0.133395,5.31957 0.133395,7.98062 0,3.79504 0,7.59009 0,11.38513 0,0.82164 0.02174,1.64148 -0.133395,2.45389 -0.127874,0.66962 -0.354221,1.30389 -0.400185,1.98964 -0.02908,0.43379 0.02223,0.89099 0.02223,1.32641 0,1.12009 0,2.24018 0,3.36028 0,0.59689 0,1.19378 0,1.79068 0,0.12527 0,0.25054 0,0.37581 0,0.0442 -0.04422,0.13266 0,0.13266 0.07369,0 -0.0077,-0.14779 0,-0.22108 0.03095,-0.29547 0.05866,-0.59188 0.111169,-0.88429 0.05879,-0.32736 0.148225,-0.64847 0.222337,-0.9727"
       id="path4915" />
    <path
       style="fill:none;stroke:#000000;stroke-width:1px;stroke-linecap:butt;stroke-linejoin:miter;stroke-opacity:1"
       d="m 98.514941,301.87089 c 0,5.82153 0,11.64305 0,17.46458 0,2.2846 -0.06157,4.58713 0.289016,6.85318 0.08812,0.56959 0.36598,1.05635 0.466901,1.61379 0.263659,1.45634 -0.06593,3.36313 0.289053,4.77511 0.07845,0.31204 0.302991,0.73046 0.489129,0.99482 0.0837,0.11887 0.19913,0.17495 0.26679,0.30951 0.0981,0.19509 0.0183,0.41075 0.0444,0.61901 0.011,0.0875 0.15707,0.25455 0.20011,0.33158 0.15697,0.28094 0.58307,0.43491 0.68924,0.75166 0.17909,0.5343 -0.0478,1.13094 0.11117,1.65803 0.026,0.0863 0.18048,0.18897 0.22234,0.26527 0.12834,0.23395 0.17784,0.52385 0.17784,0.79586"
       id="path4921" />
    <path
       style="fill:none;stroke:#000000;stroke-width:1px;stroke-linecap:butt;stroke-linejoin:miter;stroke-opacity:1"
       d="m 88.532138,348.7378 c -2.035547,1.64107 -1.936501,1.37382 -3.090422,2.65284 -0.144973,0.16069 -0.987139,0.98596 -1.200592,1.30433 -0.337614,0.50355 -0.03262,0.15144 -0.311279,0.61901 -0.607752,1.01976 0.141207,-0.32121 -0.444675,0.55266 -0.263457,0.39296 -0.378985,0.88626 -0.600296,1.30433 -0.114101,0.21554 -0.319175,0.36679 -0.444674,0.57478 -0.135426,0.22444 -0.16504,0.53528 -0.26679,0.77374 -0.164032,0.38442 -0.431385,0.70071 -0.600296,1.08325 -0.06721,0.15222 -0.246691,0.71163 -0.333506,0.88428 -0.07091,0.14101 -0.264305,0.19529 -0.355732,0.33162 -0.152644,0.22761 -0.08305,0.45506 -0.266827,0.7074 -0.445734,0.61202 -0.594144,0.22686 -0.666975,0.95062 -0.03983,0.39581 -0.414862,0.40607 -0.57807,0.7074 -0.613459,1.13262 -1.363923,2.24813 -2.467899,3.0287 -0.455332,0.32194 -1.066644,0.48594 -1.534098,0.79582 -0.06484,0.043 -0.47965,0.0631 -0.444674,0.13266 0.165395,0.329 0.322287,-0.21806 0.355732,-0.30951"
       id="path4927" />
    <path
       style="fill:none;stroke:#000000;stroke-width:1px;stroke-linecap:butt;stroke-linejoin:miter;stroke-opacity:1"
       d="m 102.93935,339.38654 c 0.8597,-0.95061 1.7395,-1.88341 2.5791,-2.85181 1.19935,-1.38333 2.09241,-3.00721 3.31276,-4.37719 0.33766,-0.37905 0.8195,-0.64267 1.20059,-0.9727 0.62046,-0.53733 1.13739,-1.1853 1.80093,-1.68014 0.34895,-0.26024 0.76907,-0.41675 1.11165,-0.68532 1.63227,-1.27963 0.10489,-0.16166 0.77818,-0.77374 0.5266,-0.47873 1.05782,-0.94921 1.55632,-1.45906 0.37809,-0.38669 0.72376,-0.95355 1.20059,-1.23802 0.17566,-0.10479 0.38642,-0.0315 0.55585,-0.13262 0.18982,-0.11324 0.74634,-0.60945 0.8004,-0.66324"
       id="path4929" />
    <path
       style="fill:none;stroke:#000000;stroke-width:1px;stroke-linecap:butt;stroke-linejoin:miter;stroke-opacity:1"
       d="m 97.514423,318.95962 c 0.243883,1.75198 0.298598,3.34732 -0.155621,5.0183 0.0087,0.3153 -0.227975,0.53839 -0.31128,0.81797 -0.05717,0.19187 -0.03466,0.39928 -0.06672,0.5969 -0.116218,0.71645 -0.250381,1.6452 -0.444637,2.32123 -0.152925,0.53219 -0.331243,1.14067 -0.533617,1.65802 -0.02191,0.056 -0.14805,0.27038 -0.155622,0.37582 -0.05024,0.6996 0,1.42078 0,2.1223 0,1.06878 -0.02993,2.10583 0.133395,3.16127 0.140497,0.90795 0.439827,3.24932 1.044971,4.00141 0.276158,0.34322 0.498073,0.80184 0.667012,1.19375 0.04255,0.0987 0.710227,0.10731 0.244563,-0.0663"
       id="path4931" />
    <path
       style="fill:none;stroke:#000000;stroke-width:1px;stroke-linecap:butt;stroke-linejoin:miter;stroke-opacity:1"
       d="m 92.600851,328.62041 c -0.218867,3.02126 -0.244564,6.03655 -0.244564,9.06387 0,2.15721 -0.03842,3.92729 1.333987,5.68151 0.08814,0.11266 0.0867,0.27451 0.155658,0.39793 0.139012,0.2488 0.339841,0.45854 0.511354,0.6632 0.137895,0.16455 0.126729,0.39419 0.222337,0.57482 0.114727,0.21674 0.409013,0.42263 0.600296,0.57478"
       id="path4933" />
    <path
       style="fill:none;fill-rule:evenodd;stroke:#000000;stroke-width:1px;stroke-linecap:butt;stroke-linejoin:miter;stroke-opacity:1;marker-end:url(#marker4939)"
       d="M 429.6142,143.6287 105.34057,200.66487"
       id="path4935"
       inkscape:connector-type="polyline"
       inkscape:connector-curvature="0" />
    <text
       xml:space="preserve"
       style="font-style:normal;font-weight:normal;font-size:40px;line-height:1.25;font-family:sans-serif;fill:#000000;fill-opacity:1;stroke:none"
       x="31.448299"
       y="148.42241"
       id="text4971"><tspan
         sodipodi:role="line"
         id="tspan4969"
         x="31.448299"
         y="148.42241">X</tspan></text>
  </g>
  <metadata
     id="metadata473">
    <rdf:RDF>
      <cc:Work
         rdf:about="">
        <cc:license
           rdf:resource="http://creativecommons.org/licenses/by-sa/4.0/" />
        <dc:title>cam-catch-image-model picture 1</dc:title>
        <dc:creator>
          <cc:Agent>
            <dc:title>Vanya Usalko</dc:title>
          </cc:Agent>
        </dc:creator>
      </cc:Work>
      <cc:License
         rdf:about="http://creativecommons.org/licenses/by-sa/4.0/">
        <cc:permits
           rdf:resource="http://creativecommons.org/ns#Reproduction" />
        <cc:permits
           rdf:resource="http://creativecommons.org/ns#Distribution" />
        <cc:requires
           rdf:resource="http://creativecommons.org/ns#Notice" />
        <cc:requires
           rdf:resource="http://creativecommons.org/ns#Attribution" />
        <cc:permits
           rdf:resource="http://creativecommons.org/ns#DerivativeWorks" />
        <cc:requires
           rdf:resource="http://creativecommons.org/ns#ShareAlike" />
      </cc:License>
    </rdf:RDF>
  </metadata>
</svg>
